<!--?xml version="1.0" encoding="UTF-8"?-->
    <!-- The Best Svg Icon site in the world: iconSvg.co, Visit us! https://iconsvg.co -->
    <svg id="svg" fill="#000000" stroke="#000000" width="400" height="400" version="1.1" viewBox="144 144 512 512" xmlns="http://www.w3.org/2000/svg">
    <g id="IconSvg_bgCarrier" stroke-width="0"></g>
    <g id="IconSvg_tracerCarrier" stroke-linecap="round" stroke-linejoin="round" stroke="#CCCCCC" stroke-width="0">
      <g xmlns="http://www.w3.org/2000/svg">
  <path d="m354.81 150.74c0.10547-0.16016 0.14062-0.30859 0.20703-0.45703l-0.59766 0.94141c0.12891-0.16016 0.29297-0.32812 0.39062-0.48437z"></path>
  <path d="m543.07 521.7c-34.289 32.098-78.695 50.273-125.54 51.5v-21.984c0.85156-0.019531 1.6875-0.089844 2.5273-0.11719 0.10547-0.003906 0.21094-0.003906 0.3125-0.011718 0.17969-0.003906 0.36328-0.023438 0.53906-0.035156 2.9609-0.12109 5.9062-0.32422 8.8203-0.59766 0.63672-0.054687 1.2734-0.097656 1.9062-0.16016 0.29297-0.03125 0.57031-0.082031 0.85547-0.10547 1.5-0.16797 2.9922-0.35938 4.4805-0.5625 0.38281-0.054687 0.77734-0.097656 1.1602-0.14453 0.41406-0.058594 0.81641-0.14062 1.2305-0.20703 80.766-12.391 142.85-82.25 142.85-166.43 0-91.629-73.535-166.35-164.68-168.38v-28.516c0-2.7852-2.2539-5.0391-5.0391-5.0391-110.95 0-201.21 90.266-201.21 201.21 0 109.27 87.547 198.48 196.18 201.16v24.738h-78.305c-2.7852 0-5.0391 2.2539-5.0391 5.0391s2.2539 5.0391 5.0391 5.0391h167.07c2.7852 0 5.0391-2.2539 5.0391-5.0391s-2.2539-5.0391-5.0391-5.0391h-78.691v-24.738c49.418-1.2188 96.27-20.363 132.43-54.227 2.0312-1.8984 2.1367-5.0898 0.23047-7.1172-1.8867-2.0391-5.082-2.1406-7.1172-0.24219zm-137.8 19.301 15.77-24.781c-1.6133-0.3125-2.7695-0.96094-3.6172-1.8398l-16.738 26.273c-1.875-0.15234-3.7422-0.33203-5.6016-0.55469l19.664-30.887c-0.53906-1.5469-1.125-3.043-2.125-4.207l-21.973 34.531c-1.8086-0.26562-3.5977-0.58984-5.3789-0.91797l22.762-35.77c-2.2461-0.26562-3.5781-0.43359-4.3984-0.625l-22.641 35.578c-1.7422-0.36328-3.4727-0.77734-5.1953-1.1992l24.227-38.074c-0.12109-0.10938-0.23047-0.22656-0.36719-0.35156-1.0273-0.94531-1.8633-1.7578-2.6406-2.4531l-25.32 39.797c-1.6875-0.46875-3.3789-0.92188-5.0469-1.4414l26.137-41.07c-1.1289-0.39844-2.5156-0.64453-4.3086-0.75391l-25.766 40.492c-1.6328-0.55469-3.2539-1.125-4.8633-1.7266l24.922-39.172c-1.6641-0.1875-3.0586-0.4375-4.3281-0.74219l-24.305 38.188c0.03125 0.097656 0.058594 0.19531 0.085938 0.29688-57.922-23.582-98.883-80.465-98.883-146.76 0-13.93 1.8242-27.438 5.2188-40.32 0.058594 0.10938 0.17578 0.25 0.22266 0.35156 0.19141 0.44922 0.41797 1.0117 0.63672 1.5508l30.512-47.953c-0.011719 0-0.023438 0.003906-0.046875 0-1.0664-0.15234-2.0547-1.1289-3.0781-2.625l-25.91 40.711c3.5703-11.145 8.3516-21.734 14.176-31.66l6.2266-9.7852c28.598-41.449 76.387-68.68 130.45-68.68 26.312 0 51.121 6.4844 72.988 17.891-0.42188 0.039063-0.84766 0.11719-1.2695 0.28125-0.81641 0.3125-2.0898 0.83984-3.6055 1.4922l-44.492 69.898c1.0938 1.25 1.1992 3.6328 0.71875 6.4023l49.434-77.672c1.4922 0.78516 2.957 1.6016 4.418 2.4336l-58.746 92.293c0.16016 1.1758 0.55859 2.0664 0.85156 2.9375 0.10547 0.29297 0.34766 1.082 0.70703 2.1445l60.312-94.758c-0.10938-0.37109-0.35156-0.76562-0.60938-1.1523 30.477 18.129 54.367 46.176 67.215 79.664l-27.371 42.996c0.64062-0.27734 0.37891-0.38672 0.53906-0.11719 0.27734 0.4375 1.1602 2.1602 2.2656 3.9258l12.68-19.922 3.7578-5.9102 10.016-15.738c0.5625 1.6406 1.1328 3.2891 1.6406 4.957l-6.0898 9.5664c0.63672 0.066407 0.60547 0.74609-0.62891 3.0117-2.9023 5.3086-3.918 6.3242-2.9023 8.5938 0.3125 0.70703 0.44141 1.5508 0.60938 2.3672l10.855-17.074c0.58984 2.2734 1.1172 4.5703 1.6055 6.8789l-9.0078 14.152c0.51953 0.023438 1.0898-0.015625 1.8047-0.14453 1.7617-0.33203 3.3164-0.50781 4.625-0.57812l3.9297-6.1836c0.44922 2.6992 0.82812 5.4258 1.1328 8.1758l-30.965 48.652c1.2812 1.3164 2.2578 2.1367 3.4375 3.1641l3.7617-5.9062 1.4219-2.2383 22.992-36.129c0.17578 2.8281 0.28906 5.668 0.3125 8.5312-10.359 16.246-19.215 30.121-19.215 30.121 1.4492 1.0938 2.1953 1.8906 3.1406 3.0391l15.949-25.086c-0.14453 3.6367-0.41406 7.2461-0.80469 10.812l-14.43 22.688c0.52344 1.0312 1.0898 1.9492 1.6133 2.6094 0.28906 0.35156 0.59375 0.67969 0.90234 0.97266l3.9531-6.2188c0.011719-0.019531 0.019531-0.050781 0.023437-0.066406 0.054688-0.10547 0.14063-0.17188 0.20313-0.28125l6.3398-9.9492c-5.5 31.719-20.461 60.215-41.867 82.504l33.039-51.906c-1.7266-0.32422-3.0234-0.57422-3.4805-0.71094-0.36328-0.054688-0.60547-0.011719-0.87109 0.015625-1.5352 0.13281-1.8633 1.3555-1.7578 2.7656l-2.2969 3.6133-35.891 56.383c0.29297-0.082032 0.53516-0.14453 0.8125-0.22266-18.801 16.328-41.469 28.309-66.441 34.355l2.9375-4.6211c0.41406-1.8984-0.32812-3.4922-1.6992-4.8633l-6.8516 10.77c-2.2227 0.45312-4.4688 0.84766-6.7305 1.2031l9.4219-14.801c-1.2031-0.61328-2.4844-1.1602-3.7422-1.6562l-10.926 17.176c-2.1211 0.26172-4.2461 0.48828-6.3867 0.66406l12.508-19.66c-1.3008-0.50391-2.5586-0.99219-3.8594-1.4766l-13.699 21.52c-2.0039 0.10547-4.0391 0.13281-6.0703 0.16016l14.801-23.246c-1.2656-0.32812-2.6836-0.625-4.2383-0.89062l-15.348 24.129c-1.9609-0.015625-3.9141-0.046875-5.8555-0.15234zm2.1758 32.199c-103.07-2.6797-186.1-87.371-186.1-191.09 0-103.71 83.027-188.4 186.1-191.08v23.473c-73.164 2.6992-134.57 52.25-154.98 119.47l-0.023437 0.046875 0.011719 0.011719c-4.6836 15.445-7.2109 31.832-7.2109 48.793 0 80.938 57.402 148.65 133.62 164.76 0.20312 0.046875 0.39844 0.097656 0.60547 0.13672 0.12109 0.023437 0.24609 0.046875 0.37109 0.070313 4.8477 0.99219 9.7695 1.7734 14.762 2.3438 0.015625 0 0.035156 0.003906 0.050781 0.003906 0.023438 0 0.046875 0.003906 0.070312 0.003906 2.7266 0.3125 5.4766 0.55078 8.2422 0.73047 0.62891 0.046875 1.2539 0.10547 1.8906 0.14062 0.26172 0.015625 0.52344 0.011718 0.78906 0.019531 0.60547 0.03125 1.1992 0.089844 1.8047 0.10938l-0.003906 22.047z"></path>
  <path d="m532.23 411.66c1.5352 0.70703 2.6602-0.76562 4.3594-0.48047l19.25-30.266-5.8438 1.1523-18.781 29.492c0.58594-0.10547 0.39453-0.18359 1.0156 0.10156z"></path>
  <path d="m549.92 424.05 3.4883-5.4805c-0.89062-1.3398-2.4375-2.7539-3.5586-3.7773l-3.2578 5.1133c0.33594 0.40625 0.63672 0.80469 0.81641 1.1953 0.49609 1.0938 1.6406 1.9766 2.5117 2.9492z"></path>
  <path d="m514.09 429.63 29.766-46.789-1.9766 0.31641s-0.50391-1.4375-1.9492-2.0195l-31.754 49.879c2.9297-0.26172 4.2969-0.75391 5.9141-1.3867z"></path>
  <path d="m499.5 426.28c-0.13281 2.2383-0.12109 4.2656 2.9062 4.7852l11.332-17.789c-1.4062 0.03125-3.7344-0.13281-5.9531-0.011719z"></path>
  <path d="m532.73 383.43c-0.57422 0.3125-1.1602 0.66016-1.7617 1.082-2.2734 1.6016-7.1641 5.8203-8.1758 7.9258-0.69141 1.4258-1.5859 3.3242-3.6797 4.3867-0.98828 0.50781-3.7344 8.3164-3.7344 9.5234 0 1.4453 0.20312 2.7656 0.30078 3.875z"></path>
  <path d="m526.48 372.19c0.14453 0 0.3125-0.050781 0.45312-0.066406l31.785-49.922c-3.043 0.42188-5.2891 2.293-7.6445 4l-26.73 41.992c0.20703 2.6445 0.65234 3.9961 2.1367 3.9961z"></path>
  <path d="m509.53 504.42 37.805-59.383c-1.3516-0.36719-2.707-0.78906-4.0117-1.25l-39.203 61.602c1.6016-0.19531 3.4297-0.53516 5.4102-0.96875z"></path>
  <path d="m536.55 439.8c0-0.96094 0.73047-2.4648 1.0664-3.9453l-43.719 68.711c1.1836 0.49219 2.5547 0.82031 4.1719 0.97656l40.566-63.742c-1.2656-0.69531-2.0859-1.3906-2.0859-2z"></path>
  <path d="m529.87 431.14-43.047 67.625c0.99609 1.082 1.9297 2.1016 2.8867 2.9961l44.789-70.379c-1.1406-0.24219-2.6523-0.34375-4.6289-0.24219z"></path>
  <path d="m518.04 432.83-37.73 59.273c0.75391 0.91016 1.6992 1.8789 2.8906 2.9883l40.238-63.219c-1.9414 0.30469-3.7305 0.61719-5.3984 0.95703z"></path>
  <path d="m504.75 436.78-27.199 42.734c-0.10547 3.1992-0.27734 5.4375 0.089843 7.4102l33.371-52.43c-2.4258 0.6875-4.4805 1.4414-6.2617 2.2852z"></path>
  <path d="m477.54 470.16 11.84-18.586c-5.3047 4.5742-11.711 8.6719-11.84 18.586z"></path>
  <path d="m357.32 439.77c-1.2656 0.91797-2.0859 2.0469-2.2422 3.5273z"></path>
  <path d="m479.96 331.57c1.4609-0.27734 2.9961-0.83594 4.8281-2.1523 3.9961-2.8477 5.5859-13.062 8.6406-19z"></path>
  <path d="m359.84 503.41-4.3984 6.9062-3.6016 5.6562c-0.019531 1.6016 0.20312 3.7539 0.69922 6.4375l20.844-32.742c-1.7969-0.25781-4.1328 0.8125-6.1328 2.0859z"></path>
  <path d="m500.3 283.91c0.66406-1.6016 1.3555-3.0469 2.0508-4.4102l-37.086 58.266c2.7773-1.4141 3.9883-4.3828 7.5469-5.3164 0.25781-0.058593 0.48438-0.089843 0.72656-0.14062l25.094-39.43c0.26562-3.2773 0.63672-6.4648 1.668-8.9688z"></path>
  <path d="m358.33 496.43c-0.60938-0.34766-1.2188-0.76562-1.6523-1.1992-0.8125-0.80469-2.0742 0.97656-3.3047 1.4414l-2.207 3.4766c1.4102 0.75391 2.7539 1.1523 3.9688 1.3008z"></path>
  <path d="m444.01 361.8 64.836-101.88c-0.36719-0.10547-0.70703-0.22266-1.1328-0.29688-0.88672-0.14453-1.832-0.5625-2.7969-1.0781l-63.527 99.832c0.87109 1.4688 1.7539 2.6562 2.6211 3.418z"></path>
  <path d="m416.73 380.21-6.8867 10.816c0.19141-0.03125 0.42188-0.03125 0.59375-0.074219 3.543-0.84766 4.0508-1.5156 3.8828 0.16797-0.019531 0.19531-0.082031 0.42188-0.15625 0.66016l2.9883-4.6914c0.33594-1.8477 0.71094-3.7773 0.28906-5.3438-0.14062-0.5-0.39453-1.0078-0.71094-1.5352z"></path>
  <path d="m402.77 402.16-3.0234 4.7578c2.8359-1.9297 6.5195-4.4727 5.4766-5.3398-1.0117-0.82812-1.6484 0.078125-2.4531 0.58203z"></path>
  <path d="m347.76 491.43c-0.55078-0.35156-0.66406-1.0078-0.63672-1.8477l-2.8125 4.4102c0.91797 0.96875 1.8594 1.9844 2.8633 3.0391l2.3633-3.7031c-0.56641-0.77734-1.1523-1.4883-1.7773-1.8984z"></path>
  <path d="m500.82 255.61c-1.0547-0.95312-2.0547-1.9648-2.9023-2.9766l-61.035 95.91c0.57422 1.5 1.2031 3.0547 1.875 4.5938z"></path>
  <path d="m342.73 479.6-5.0547 7.9297c1.0078 0.80078 2.0117 1.7344 3.0547 2.75l5.7734-9.0898c-0.82812-1.418-2.2031-1.7305-3.7734-1.5898z"></path>
  <path d="m410.39 373.27-11.074 17.398c1.3438 0.003907 2.9688 0.14453 4.625 0.28125l9.375-14.75c-1.0391-1.0508-2.0977-2.0469-2.9258-2.9297z"></path>
  <path d="m397.71 395.1c-0.23047-0.30078-0.46484-0.57422-0.68359-0.82812l-8.7617 13.766c1.7617-0.85547 3.4727-1.3164 3.8789-1.6289 0.57031-0.43359 1.2891-0.089844 1.457 0.77734l4.8008-7.543c-0.085938-0.16797-0.19531-0.32812-0.26562-0.50391-0.68359-1.5977 1.0117-2.1875-0.42578-4.0391z"></path>
  <path d="m353.31 453.59 1.4453-2.2773c0.26562-2.3516 0.41406-5.0117 0.20703-7.1641-0.019532-0.31641 0.074218-0.57812 0.10547-0.86328l-3.6875 5.8008c1.3281 1.25 1.7969 2.9336 1.9297 4.5039z"></path>
  <path d="m406.87 361.9-49.555 77.863c1.9336-1.3945 4.6836-2.4141 7.1055-3.6211l43.695-68.668c-0.35547-1.8594-0.76172-3.9219-1.2461-5.5742z"></path>
  <path d="m339.92 469.69c0.64453-1.1133 0.38281-1.7422-0.3125-2.0977l-9.8594 15.492c0.62109 0.59375 1.4609 1.1523 2.7148 1.5273 0.30859 0.089844 0.59375 0.23047 0.88672 0.34375l3.0312-4.7578c-0.03125-0.003907-0.082031 0-0.11719-0.011719-3.2891-0.89062 2.1406-7.8477 3.6562-10.496z"></path>
  <path d="m403.7 350.66c2.1875 2.3594 6.0664-2.5273 7.0742-5.3906 0.4375-1.2344-0.17188-3.0625-0.98438-4.8828l-6.3477 9.9688c0.078126 0.097656 0.17578 0.22656 0.25781 0.30469z"></path>
  <path d="m326.14 473.23c-0.29688-0.03125-0.53906-0.085937-0.80469-0.125l-4.375 6.8711c1.1367 0.035156 2.1406-0.019531 2.9023-0.17188 0.86328-0.15625 1.4961-0.14453 2.0469-0.066406l7.2188-11.34c-1.875 1.8242-3.5703 5.2188-6.9883 4.832z"></path>
  <path d="m416.36 330.08-4.4688 7.0312c0.89844 0.76562 1.582 1.4141 1.582 1.4141s3.7031-3.8789 4.7188-5.2188c0.58203-0.77734-0.44922-1.9297-1.832-3.2266z"></path>
  <path d="m399.88 363.51c-0.92578-0.21094-1.8047-0.83594-2.2461-1.3711-0.39844-0.48047-0.59766-0.77734-0.74609-1.4414l-54.59 85.75c1.3086 0.085938 2.7773 0.34375 4.3477 0.71094z"></path>
  <path d="m438.1 302.12c-0.14453 0.82812-0.38281 1.6055-0.64844 2.3672l36.289-57.016c-2.207 0.89844-4.3984 1.7383-6.3438 2.418l-29.809 46.836c0.55469 1.5977 0.85937 3.4102 0.51172 5.3945z"></path>
  <path d="m319.95 464.66-8.5781 13.477c1.3672 0.47266 2.7422 0.84766 4.0742 1.1328l5.4922-8.625c-0.44141-0.875-0.57812-1.9844-0.48828-3.3555 0.074219-1.0117-0.18359-1.8125-0.5-2.6289z"></path>
  <path d="m335.7 447.45 59.758-93.898c-0.69922-1.0781-1.6992-2.0859-2.8906-2.9922l-20.43 32.098-1.6641 2.6211-39.527 62.109c1.8516-0.019531 3.543 0.12891 4.7539 0.0625z"></path>
  <path d="m410.63 322.16-12.953 20.359c0.78125 0.95703 1.6719 2.207 2.5742 3.4922l7.168-11.27 0.21484-0.32812 4.9961-7.8594c-1.6094-1.5781-1.707-0.96094-2-4.3945z"></path>
  <path d="m433.7 290.31c0.24609 0.35156 0.64844 0.86328 1.082 1.4297l25.789-40.527c-1.3438-0.16016-2.8711-0.42969-4.3867-0.62891l-24.242 38.102c0.77734 0.48828 1.3555 1.0508 1.7578 1.625z"></path>
  <path d="m324.01 448.91 42.863-67.348c-0.72656-1.4766-1.2383-3.043-1.6133-4.0898-0.097656-0.25781-0.11719-0.48828-0.125-0.70703l-61.715 96.965c0.99609 0.88281 2.1094 1.6523 3.3086 2.3359z"></path>
  <path d="m408.11 309.21-8.5508 13.445-8.2109 12.898-2.9766 4.6719c1.2461 0.37891 2.8984 0.57422 4.3828 0.65625l18.355-28.828c-0.64062-0.72656-1.7344-1.7344-3-2.8438z"></path>
  <path d="m449.21 252.2c-1.7148 1.125-4.8008 2.6797-7.5469 4.3164l-4.5938 7.2188-2.6367 4.1445-11.75 18.469c0.5 0.31641 1.0938 0.55859 1.9297 0.58984 0.86719 0.03125 1.6367 0.10547 2.3633 0.19141z"></path>
  <path d="m359.36 369.21c-0.050781-0.019532-0.085938-0.035156-0.13672-0.066406l-60.809 95.551c0.40625 1.1016 0.80469 2.2578 1.1836 3.4766 0.14453 0.46484 0.34766 0.89844 0.55078 1.3359l62.695-98.512c-0.9375-0.69922-1.4297-1.1406-3.4844-1.7852z"></path>
  <path d="m394.18 314.21c0.8125 0.27344 1.4492 0.61328 1.7617 0.37109 0.35156-0.26563 0.90234 0.73437 1.4766 2.0703l6.957-10.918c-1.0977-1.4492-1.0898-2.832-1.6758-4.9062z"></path>
  <path d="m428.52 267.79c-1.8555-0.011719-3.5938 0.039062-4.9531 0.24609l-2.1602 3.3945c0.94141 2.625 0.55859 5.707 0.3125 7.0547z"></path>
  <path d="m434.88 257.53s0.10547-0.054688 0.26172-0.13281l10.297-16.191c-1.1172-1.0117-2.3281-1.7891-3.3008-2.3477l-13.453 21.137c3.5039-1.25 6.1953-2.4648 6.1953-2.4648z"></path>
  <path d="m351.84 363.84-57.922 91.023c0.69922 1.25 1.4141 2.625 2.1367 4.1719l59.867-94.066c-1.1719-0.80859-2.7578-1.0781-4.082-1.1289z"></path>
  <path d="m371.11 341.11 4.1523-6.5234 4.793-7.5352 19.84-31.172c-1.0117-0.64453-2.3516-0.64453-4.5156-0.43359l-24.359 38.273c0.25781 0.62109 0.13281 2.1445-0.69531 3.8047-0.71094 1.4102-0.027343 2.7148 0.78516 3.5859z"></path>
  <path d="m403.03 289.12c0.26172-1.0664-0.46875-2.1953-1.582-3.2227l-2.7969 4.3867c2.3281 0.27344 4.0703 0.035157 4.3789-1.1641z"></path>
  <path d="m431.92 238.01-26.934 42.309c0.60547-0.03125 1.1953-0.24219 1.8242-0.79688 2.2734-2.0195 3.8633-2.5273 5.3516-5.3086 1.4062-2.6445 3.4961-4.1094 4.3516-4.4727 0.046875-0.019531 0.12109-0.070312 0.15234-0.085937 0.19531-0.058594 0.39453-0.53516 0.67969-1.2148l3.2891-5.1797 16.125-25.34c-1.3398 0.011719-2.9844 0.035156-4.8398 0.089843z"></path>
  <path d="m360.78 340.42 13.633-21.418 4.8164-7.5781 10.172-15.965c-0.27344-0.30859-0.3125-0.80078-0.19531-1.6016 0.30859-2.1523-2.0234-0.40625-4.1016 0.8125l-8.125 12.777-4.9336 7.7539-83.828 131.71c0.8125 0.84766 1.543 1.6641 2.0195 2.293 0.22266 0.28906 0.46875 0.625 0.70703 0.95703l58.461-91.855z"></path>
  <path d="m399.24 272.45-9.8242 15.441c1.2891 0.44922 2.6406 0.88281 3.9883 1.2578l3.8086-5.9766 2.6953-4.2422 25.879-40.668c-1.6719 0.097656-3.3672 0.23047-5.0469 0.39453l-19.477 30.613z"></path>
  <path d="m370.83 306.84c0.38672-2.1211 0.023437-4.0742-0.8125-5.3711l-90.344 141.95c0.37891 1.293 1.0312 2.9023 1.8438 4.6406l1.7383-2.7266 1.2031-1.8945 86.141-135.35c0.070313-0.39063 0.14062-0.78906 0.23047-1.25z"></path>
  <path d="m391.33 275.51c-3.0469 0.75-4.75 2.5859-4.75 3.2539 0 0.65625-4.293 4.4922-1.7852 7.0039z"></path>
  <path d="m397.64 265.58 16.586-26.051c-2.3008 0.41797-4.3008 0.94531-5.8125 1.5938l-13.512 21.234c0.21484 1.1914 0.86719 2.4844 2.7383 3.2227z"></path>
  <path d="m349.17 317.31-73.883 116.1c0.89062 1.2461 1.7344 2.4688 2.4219 3.7266l76.43-120.1c-1.7383 0.41797-3.7773 0.36719-4.9688 0.27344z"></path>
  <path d="m346.98 311.4 5.8555-9.2109c-0.55078-0.5-1.082-0.97656-1.3945-1.4219-1.2695-1.7734 0.089844-2.1172 0.51562-4.7266l-81.699 128.38c0.58984 1.8203 1.2891 3.2852 1.9688 4.4492l72.785-114.37z"></path>
  <path d="m333.56 313.58s-1.5117-0.41406-2.9727-0.89062l-61.137 96.082c-0.50781 3.125-0.625 5.8789-0.5 8.3164l65.121-102.34c-0.3125-0.63281-0.51172-1.168-0.51172-1.168z"></path>
  <path d="m336.54 310.87 11.582-18.184c-0.73438 0.86328-1.25-4.3086-2.6836-3.3242l-13.121 20.625c1.1445 0.41406 2.8086 0.69922 4.2227 0.88281z"></path>
  <path d="m326.86 301.64c-0.03125 0.054688-0.082031 0.10156-0.097656 0.14453l-2.4102 3.7734-50.133 78.797c0.55859 1.75 0.66406 4.2188-0.10156 7.6914l53.965-84.812 0.82812-1.2852 12.848-20.188c-0.91016-1.1758-0.86328-2.707-1.1953-5.6719l-9.5508 15.023z"></path>
  <path d="m270.82 380.34 49.664-78.047c-0.96094-0.84766-1.9961-1.7578-3.0586-2.7188l-45.473 71.457c0.019531 3.5625-2.7461 7.0273-3.0625 8.1367-0.10547 0.375 0.80469 0.57812 1.9297 1.1719z"></path>
  <path d="m328.58 289.57 9.1914-14.449c-1.2578-0.45703-2.8516-0.52734-4.5938-0.30859l-9.4375 14.82c0.52344-0.054687 0.95703-0.21484 1.1328-0.51562 0.56641-0.92969 2.9414-0.60547 3.707 0.45312z"></path>
  <path d="m311.35 293.81c-0.19531-0.22266-0.46875-0.33594-0.71094-0.48828l-45.105 70.879c0.27734 3.0078 0.57422 5.4609 0.93359 5.3516 0.16016-0.054688 0.45312-0.27344 0.80078-0.52344l46.402-72.918c-0.94531-0.89062-1.7773-1.7148-2.3203-2.3008z"></path>
  <path d="m299.01 294.69-35.438 55.695c0.50391 1.5859 0.9375 3.1641 1.125 4.5039 0.039062 0.30859 0.085937 0.67578 0.12109 1.0664l39.871-62.645c-1.9492 0.49219-3.9453 1.1016-5.6797 1.3789z"></path>
 </g>

      </g>
     <g id="IconSvg_iconCarrier">
      <g xmlns="http://www.w3.org/2000/svg">
  <path d="m354.81 150.74c0.10547-0.16016 0.14062-0.30859 0.20703-0.45703l-0.59766 0.94141c0.12891-0.16016 0.29297-0.32812 0.39062-0.48437z"></path>
  <path d="m543.07 521.7c-34.289 32.098-78.695 50.273-125.54 51.5v-21.984c0.85156-0.019531 1.6875-0.089844 2.5273-0.11719 0.10547-0.003906 0.21094-0.003906 0.3125-0.011718 0.17969-0.003906 0.36328-0.023438 0.53906-0.035156 2.9609-0.12109 5.9062-0.32422 8.8203-0.59766 0.63672-0.054687 1.2734-0.097656 1.9062-0.16016 0.29297-0.03125 0.57031-0.082031 0.85547-0.10547 1.5-0.16797 2.9922-0.35938 4.4805-0.5625 0.38281-0.054687 0.77734-0.097656 1.1602-0.14453 0.41406-0.058594 0.81641-0.14062 1.2305-0.20703 80.766-12.391 142.85-82.25 142.85-166.43 0-91.629-73.535-166.35-164.68-168.38v-28.516c0-2.7852-2.2539-5.0391-5.0391-5.0391-110.95 0-201.21 90.266-201.21 201.21 0 109.27 87.547 198.48 196.18 201.16v24.738h-78.305c-2.7852 0-5.0391 2.2539-5.0391 5.0391s2.2539 5.0391 5.0391 5.0391h167.07c2.7852 0 5.0391-2.2539 5.0391-5.0391s-2.2539-5.0391-5.0391-5.0391h-78.691v-24.738c49.418-1.2188 96.27-20.363 132.43-54.227 2.0312-1.8984 2.1367-5.0898 0.23047-7.1172-1.8867-2.0391-5.082-2.1406-7.1172-0.24219zm-137.8 19.301 15.77-24.781c-1.6133-0.3125-2.7695-0.96094-3.6172-1.8398l-16.738 26.273c-1.875-0.15234-3.7422-0.33203-5.6016-0.55469l19.664-30.887c-0.53906-1.5469-1.125-3.043-2.125-4.207l-21.973 34.531c-1.8086-0.26562-3.5977-0.58984-5.3789-0.91797l22.762-35.77c-2.2461-0.26562-3.5781-0.43359-4.3984-0.625l-22.641 35.578c-1.7422-0.36328-3.4727-0.77734-5.1953-1.1992l24.227-38.074c-0.12109-0.10938-0.23047-0.22656-0.36719-0.35156-1.0273-0.94531-1.8633-1.7578-2.6406-2.4531l-25.32 39.797c-1.6875-0.46875-3.3789-0.92188-5.0469-1.4414l26.137-41.07c-1.1289-0.39844-2.5156-0.64453-4.3086-0.75391l-25.766 40.492c-1.6328-0.55469-3.2539-1.125-4.8633-1.7266l24.922-39.172c-1.6641-0.1875-3.0586-0.4375-4.3281-0.74219l-24.305 38.188c0.03125 0.097656 0.058594 0.19531 0.085938 0.29688-57.922-23.582-98.883-80.465-98.883-146.76 0-13.93 1.8242-27.438 5.2188-40.32 0.058594 0.10938 0.17578 0.25 0.22266 0.35156 0.19141 0.44922 0.41797 1.0117 0.63672 1.5508l30.512-47.953c-0.011719 0-0.023438 0.003906-0.046875 0-1.0664-0.15234-2.0547-1.1289-3.0781-2.625l-25.91 40.711c3.5703-11.145 8.3516-21.734 14.176-31.66l6.2266-9.7852c28.598-41.449 76.387-68.68 130.45-68.68 26.312 0 51.121 6.4844 72.988 17.891-0.42188 0.039063-0.84766 0.11719-1.2695 0.28125-0.81641 0.3125-2.0898 0.83984-3.6055 1.4922l-44.492 69.898c1.0938 1.25 1.1992 3.6328 0.71875 6.4023l49.434-77.672c1.4922 0.78516 2.957 1.6016 4.418 2.4336l-58.746 92.293c0.16016 1.1758 0.55859 2.0664 0.85156 2.9375 0.10547 0.29297 0.34766 1.082 0.70703 2.1445l60.312-94.758c-0.10938-0.37109-0.35156-0.76562-0.60938-1.1523 30.477 18.129 54.367 46.176 67.215 79.664l-27.371 42.996c0.64062-0.27734 0.37891-0.38672 0.53906-0.11719 0.27734 0.4375 1.1602 2.1602 2.2656 3.9258l12.68-19.922 3.7578-5.9102 10.016-15.738c0.5625 1.6406 1.1328 3.2891 1.6406 4.957l-6.0898 9.5664c0.63672 0.066407 0.60547 0.74609-0.62891 3.0117-2.9023 5.3086-3.918 6.3242-2.9023 8.5938 0.3125 0.70703 0.44141 1.5508 0.60938 2.3672l10.855-17.074c0.58984 2.2734 1.1172 4.5703 1.6055 6.8789l-9.0078 14.152c0.51953 0.023438 1.0898-0.015625 1.8047-0.14453 1.7617-0.33203 3.3164-0.50781 4.625-0.57812l3.9297-6.1836c0.44922 2.6992 0.82812 5.4258 1.1328 8.1758l-30.965 48.652c1.2812 1.3164 2.2578 2.1367 3.4375 3.1641l3.7617-5.9062 1.4219-2.2383 22.992-36.129c0.17578 2.8281 0.28906 5.668 0.3125 8.5312-10.359 16.246-19.215 30.121-19.215 30.121 1.4492 1.0938 2.1953 1.8906 3.1406 3.0391l15.949-25.086c-0.14453 3.6367-0.41406 7.2461-0.80469 10.812l-14.43 22.688c0.52344 1.0312 1.0898 1.9492 1.6133 2.6094 0.28906 0.35156 0.59375 0.67969 0.90234 0.97266l3.9531-6.2188c0.011719-0.019531 0.019531-0.050781 0.023437-0.066406 0.054688-0.10547 0.14063-0.17188 0.20313-0.28125l6.3398-9.9492c-5.5 31.719-20.461 60.215-41.867 82.504l33.039-51.906c-1.7266-0.32422-3.0234-0.57422-3.4805-0.71094-0.36328-0.054688-0.60547-0.011719-0.87109 0.015625-1.5352 0.13281-1.8633 1.3555-1.7578 2.7656l-2.2969 3.6133-35.891 56.383c0.29297-0.082032 0.53516-0.14453 0.8125-0.22266-18.801 16.328-41.469 28.309-66.441 34.355l2.9375-4.6211c0.41406-1.8984-0.32812-3.4922-1.6992-4.8633l-6.8516 10.77c-2.2227 0.45312-4.4688 0.84766-6.7305 1.2031l9.4219-14.801c-1.2031-0.61328-2.4844-1.1602-3.7422-1.6562l-10.926 17.176c-2.1211 0.26172-4.2461 0.48828-6.3867 0.66406l12.508-19.66c-1.3008-0.50391-2.5586-0.99219-3.8594-1.4766l-13.699 21.52c-2.0039 0.10547-4.0391 0.13281-6.0703 0.16016l14.801-23.246c-1.2656-0.32812-2.6836-0.625-4.2383-0.89062l-15.348 24.129c-1.9609-0.015625-3.9141-0.046875-5.8555-0.15234zm2.1758 32.199c-103.07-2.6797-186.1-87.371-186.1-191.09 0-103.71 83.027-188.4 186.1-191.08v23.473c-73.164 2.6992-134.57 52.25-154.98 119.47l-0.023437 0.046875 0.011719 0.011719c-4.6836 15.445-7.2109 31.832-7.2109 48.793 0 80.938 57.402 148.65 133.62 164.76 0.20312 0.046875 0.39844 0.097656 0.60547 0.13672 0.12109 0.023437 0.24609 0.046875 0.37109 0.070313 4.8477 0.99219 9.7695 1.7734 14.762 2.3438 0.015625 0 0.035156 0.003906 0.050781 0.003906 0.023438 0 0.046875 0.003906 0.070312 0.003906 2.7266 0.3125 5.4766 0.55078 8.2422 0.73047 0.62891 0.046875 1.2539 0.10547 1.8906 0.14062 0.26172 0.015625 0.52344 0.011718 0.78906 0.019531 0.60547 0.03125 1.1992 0.089844 1.8047 0.10938l-0.003906 22.047z"></path>
  <path d="m532.23 411.66c1.5352 0.70703 2.6602-0.76562 4.3594-0.48047l19.25-30.266-5.8438 1.1523-18.781 29.492c0.58594-0.10547 0.39453-0.18359 1.0156 0.10156z"></path>
  <path d="m549.92 424.05 3.4883-5.4805c-0.89062-1.3398-2.4375-2.7539-3.5586-3.7773l-3.2578 5.1133c0.33594 0.40625 0.63672 0.80469 0.81641 1.1953 0.49609 1.0938 1.6406 1.9766 2.5117 2.9492z"></path>
  <path d="m514.09 429.63 29.766-46.789-1.9766 0.31641s-0.50391-1.4375-1.9492-2.0195l-31.754 49.879c2.9297-0.26172 4.2969-0.75391 5.9141-1.3867z"></path>
  <path d="m499.5 426.28c-0.13281 2.2383-0.12109 4.2656 2.9062 4.7852l11.332-17.789c-1.4062 0.03125-3.7344-0.13281-5.9531-0.011719z"></path>
  <path d="m532.73 383.43c-0.57422 0.3125-1.1602 0.66016-1.7617 1.082-2.2734 1.6016-7.1641 5.8203-8.1758 7.9258-0.69141 1.4258-1.5859 3.3242-3.6797 4.3867-0.98828 0.50781-3.7344 8.3164-3.7344 9.5234 0 1.4453 0.20312 2.7656 0.30078 3.875z"></path>
  <path d="m526.48 372.19c0.14453 0 0.3125-0.050781 0.45312-0.066406l31.785-49.922c-3.043 0.42188-5.2891 2.293-7.6445 4l-26.73 41.992c0.20703 2.6445 0.65234 3.9961 2.1367 3.9961z"></path>
  <path d="m509.53 504.42 37.805-59.383c-1.3516-0.36719-2.707-0.78906-4.0117-1.25l-39.203 61.602c1.6016-0.19531 3.4297-0.53516 5.4102-0.96875z"></path>
  <path d="m536.55 439.8c0-0.96094 0.73047-2.4648 1.0664-3.9453l-43.719 68.711c1.1836 0.49219 2.5547 0.82031 4.1719 0.97656l40.566-63.742c-1.2656-0.69531-2.0859-1.3906-2.0859-2z"></path>
  <path d="m529.87 431.14-43.047 67.625c0.99609 1.082 1.9297 2.1016 2.8867 2.9961l44.789-70.379c-1.1406-0.24219-2.6523-0.34375-4.6289-0.24219z"></path>
  <path d="m518.04 432.83-37.73 59.273c0.75391 0.91016 1.6992 1.8789 2.8906 2.9883l40.238-63.219c-1.9414 0.30469-3.7305 0.61719-5.3984 0.95703z"></path>
  <path d="m504.75 436.78-27.199 42.734c-0.10547 3.1992-0.27734 5.4375 0.089843 7.4102l33.371-52.43c-2.4258 0.6875-4.4805 1.4414-6.2617 2.2852z"></path>
  <path d="m477.54 470.16 11.84-18.586c-5.3047 4.5742-11.711 8.6719-11.84 18.586z"></path>
  <path d="m357.32 439.77c-1.2656 0.91797-2.0859 2.0469-2.2422 3.5273z"></path>
  <path d="m479.96 331.57c1.4609-0.27734 2.9961-0.83594 4.8281-2.1523 3.9961-2.8477 5.5859-13.062 8.6406-19z"></path>
  <path d="m359.84 503.41-4.3984 6.9062-3.6016 5.6562c-0.019531 1.6016 0.20312 3.7539 0.69922 6.4375l20.844-32.742c-1.7969-0.25781-4.1328 0.8125-6.1328 2.0859z"></path>
  <path d="m500.3 283.91c0.66406-1.6016 1.3555-3.0469 2.0508-4.4102l-37.086 58.266c2.7773-1.4141 3.9883-4.3828 7.5469-5.3164 0.25781-0.058593 0.48438-0.089843 0.72656-0.14062l25.094-39.43c0.26562-3.2773 0.63672-6.4648 1.668-8.9688z"></path>
  <path d="m358.33 496.43c-0.60938-0.34766-1.2188-0.76562-1.6523-1.1992-0.8125-0.80469-2.0742 0.97656-3.3047 1.4414l-2.207 3.4766c1.4102 0.75391 2.7539 1.1523 3.9688 1.3008z"></path>
  <path d="m444.01 361.8 64.836-101.88c-0.36719-0.10547-0.70703-0.22266-1.1328-0.29688-0.88672-0.14453-1.832-0.5625-2.7969-1.0781l-63.527 99.832c0.87109 1.4688 1.7539 2.6562 2.6211 3.418z"></path>
  <path d="m416.73 380.21-6.8867 10.816c0.19141-0.03125 0.42188-0.03125 0.59375-0.074219 3.543-0.84766 4.0508-1.5156 3.8828 0.16797-0.019531 0.19531-0.082031 0.42188-0.15625 0.66016l2.9883-4.6914c0.33594-1.8477 0.71094-3.7773 0.28906-5.3438-0.14062-0.5-0.39453-1.0078-0.71094-1.5352z"></path>
  <path d="m402.77 402.16-3.0234 4.7578c2.8359-1.9297 6.5195-4.4727 5.4766-5.3398-1.0117-0.82812-1.6484 0.078125-2.4531 0.58203z"></path>
  <path d="m347.76 491.43c-0.55078-0.35156-0.66406-1.0078-0.63672-1.8477l-2.8125 4.4102c0.91797 0.96875 1.8594 1.9844 2.8633 3.0391l2.3633-3.7031c-0.56641-0.77734-1.1523-1.4883-1.7773-1.8984z"></path>
  <path d="m500.82 255.61c-1.0547-0.95312-2.0547-1.9648-2.9023-2.9766l-61.035 95.91c0.57422 1.5 1.2031 3.0547 1.875 4.5938z"></path>
  <path d="m342.73 479.6-5.0547 7.9297c1.0078 0.80078 2.0117 1.7344 3.0547 2.75l5.7734-9.0898c-0.82812-1.418-2.2031-1.7305-3.7734-1.5898z"></path>
  <path d="m410.39 373.27-11.074 17.398c1.3438 0.003907 2.9688 0.14453 4.625 0.28125l9.375-14.75c-1.0391-1.0508-2.0977-2.0469-2.9258-2.9297z"></path>
  <path d="m397.71 395.1c-0.23047-0.30078-0.46484-0.57422-0.68359-0.82812l-8.7617 13.766c1.7617-0.85547 3.4727-1.3164 3.8789-1.6289 0.57031-0.43359 1.2891-0.089844 1.457 0.77734l4.8008-7.543c-0.085938-0.16797-0.19531-0.32812-0.26562-0.50391-0.68359-1.5977 1.0117-2.1875-0.42578-4.0391z"></path>
  <path d="m353.31 453.59 1.4453-2.2773c0.26562-2.3516 0.41406-5.0117 0.20703-7.1641-0.019532-0.31641 0.074218-0.57812 0.10547-0.86328l-3.6875 5.8008c1.3281 1.25 1.7969 2.9336 1.9297 4.5039z"></path>
  <path d="m406.87 361.9-49.555 77.863c1.9336-1.3945 4.6836-2.4141 7.1055-3.6211l43.695-68.668c-0.35547-1.8594-0.76172-3.9219-1.2461-5.5742z"></path>
  <path d="m339.92 469.69c0.64453-1.1133 0.38281-1.7422-0.3125-2.0977l-9.8594 15.492c0.62109 0.59375 1.4609 1.1523 2.7148 1.5273 0.30859 0.089844 0.59375 0.23047 0.88672 0.34375l3.0312-4.7578c-0.03125-0.003907-0.082031 0-0.11719-0.011719-3.2891-0.89062 2.1406-7.8477 3.6562-10.496z"></path>
  <path d="m403.7 350.66c2.1875 2.3594 6.0664-2.5273 7.0742-5.3906 0.4375-1.2344-0.17188-3.0625-0.98438-4.8828l-6.3477 9.9688c0.078126 0.097656 0.17578 0.22656 0.25781 0.30469z"></path>
  <path d="m326.14 473.23c-0.29688-0.03125-0.53906-0.085937-0.80469-0.125l-4.375 6.8711c1.1367 0.035156 2.1406-0.019531 2.9023-0.17188 0.86328-0.15625 1.4961-0.14453 2.0469-0.066406l7.2188-11.34c-1.875 1.8242-3.5703 5.2188-6.9883 4.832z"></path>
  <path d="m416.36 330.08-4.4688 7.0312c0.89844 0.76562 1.582 1.4141 1.582 1.4141s3.7031-3.8789 4.7188-5.2188c0.58203-0.77734-0.44922-1.9297-1.832-3.2266z"></path>
  <path d="m399.88 363.51c-0.92578-0.21094-1.8047-0.83594-2.2461-1.3711-0.39844-0.48047-0.59766-0.77734-0.74609-1.4414l-54.59 85.75c1.3086 0.085938 2.7773 0.34375 4.3477 0.71094z"></path>
  <path d="m438.1 302.12c-0.14453 0.82812-0.38281 1.6055-0.64844 2.3672l36.289-57.016c-2.207 0.89844-4.3984 1.7383-6.3438 2.418l-29.809 46.836c0.55469 1.5977 0.85937 3.4102 0.51172 5.3945z"></path>
  <path d="m319.95 464.66-8.5781 13.477c1.3672 0.47266 2.7422 0.84766 4.0742 1.1328l5.4922-8.625c-0.44141-0.875-0.57812-1.9844-0.48828-3.3555 0.074219-1.0117-0.18359-1.8125-0.5-2.6289z"></path>
  <path d="m335.7 447.45 59.758-93.898c-0.69922-1.0781-1.6992-2.0859-2.8906-2.9922l-20.43 32.098-1.6641 2.6211-39.527 62.109c1.8516-0.019531 3.543 0.12891 4.7539 0.0625z"></path>
  <path d="m410.63 322.16-12.953 20.359c0.78125 0.95703 1.6719 2.207 2.5742 3.4922l7.168-11.27 0.21484-0.32812 4.9961-7.8594c-1.6094-1.5781-1.707-0.96094-2-4.3945z"></path>
  <path d="m433.7 290.31c0.24609 0.35156 0.64844 0.86328 1.082 1.4297l25.789-40.527c-1.3438-0.16016-2.8711-0.42969-4.3867-0.62891l-24.242 38.102c0.77734 0.48828 1.3555 1.0508 1.7578 1.625z"></path>
  <path d="m324.01 448.91 42.863-67.348c-0.72656-1.4766-1.2383-3.043-1.6133-4.0898-0.097656-0.25781-0.11719-0.48828-0.125-0.70703l-61.715 96.965c0.99609 0.88281 2.1094 1.6523 3.3086 2.3359z"></path>
  <path d="m408.11 309.21-8.5508 13.445-8.2109 12.898-2.9766 4.6719c1.2461 0.37891 2.8984 0.57422 4.3828 0.65625l18.355-28.828c-0.64062-0.72656-1.7344-1.7344-3-2.8438z"></path>
  <path d="m449.21 252.2c-1.7148 1.125-4.8008 2.6797-7.5469 4.3164l-4.5938 7.2188-2.6367 4.1445-11.75 18.469c0.5 0.31641 1.0938 0.55859 1.9297 0.58984 0.86719 0.03125 1.6367 0.10547 2.3633 0.19141z"></path>
  <path d="m359.36 369.21c-0.050781-0.019532-0.085938-0.035156-0.13672-0.066406l-60.809 95.551c0.40625 1.1016 0.80469 2.2578 1.1836 3.4766 0.14453 0.46484 0.34766 0.89844 0.55078 1.3359l62.695-98.512c-0.9375-0.69922-1.4297-1.1406-3.4844-1.7852z"></path>
  <path d="m394.18 314.21c0.8125 0.27344 1.4492 0.61328 1.7617 0.37109 0.35156-0.26563 0.90234 0.73437 1.4766 2.0703l6.957-10.918c-1.0977-1.4492-1.0898-2.832-1.6758-4.9062z"></path>
  <path d="m428.52 267.79c-1.8555-0.011719-3.5938 0.039062-4.9531 0.24609l-2.1602 3.3945c0.94141 2.625 0.55859 5.707 0.3125 7.0547z"></path>
  <path d="m434.88 257.53s0.10547-0.054688 0.26172-0.13281l10.297-16.191c-1.1172-1.0117-2.3281-1.7891-3.3008-2.3477l-13.453 21.137c3.5039-1.25 6.1953-2.4648 6.1953-2.4648z"></path>
  <path d="m351.84 363.84-57.922 91.023c0.69922 1.25 1.4141 2.625 2.1367 4.1719l59.867-94.066c-1.1719-0.80859-2.7578-1.0781-4.082-1.1289z"></path>
  <path d="m371.11 341.11 4.1523-6.5234 4.793-7.5352 19.84-31.172c-1.0117-0.64453-2.3516-0.64453-4.5156-0.43359l-24.359 38.273c0.25781 0.62109 0.13281 2.1445-0.69531 3.8047-0.71094 1.4102-0.027343 2.7148 0.78516 3.5859z"></path>
  <path d="m403.03 289.12c0.26172-1.0664-0.46875-2.1953-1.582-3.2227l-2.7969 4.3867c2.3281 0.27344 4.0703 0.035157 4.3789-1.1641z"></path>
  <path d="m431.92 238.01-26.934 42.309c0.60547-0.03125 1.1953-0.24219 1.8242-0.79688 2.2734-2.0195 3.8633-2.5273 5.3516-5.3086 1.4062-2.6445 3.4961-4.1094 4.3516-4.4727 0.046875-0.019531 0.12109-0.070312 0.15234-0.085937 0.19531-0.058594 0.39453-0.53516 0.67969-1.2148l3.2891-5.1797 16.125-25.34c-1.3398 0.011719-2.9844 0.035156-4.8398 0.089843z"></path>
  <path d="m360.78 340.42 13.633-21.418 4.8164-7.5781 10.172-15.965c-0.27344-0.30859-0.3125-0.80078-0.19531-1.6016 0.30859-2.1523-2.0234-0.40625-4.1016 0.8125l-8.125 12.777-4.9336 7.7539-83.828 131.71c0.8125 0.84766 1.543 1.6641 2.0195 2.293 0.22266 0.28906 0.46875 0.625 0.70703 0.95703l58.461-91.855z"></path>
  <path d="m399.24 272.45-9.8242 15.441c1.2891 0.44922 2.6406 0.88281 3.9883 1.2578l3.8086-5.9766 2.6953-4.2422 25.879-40.668c-1.6719 0.097656-3.3672 0.23047-5.0469 0.39453l-19.477 30.613z"></path>
  <path d="m370.83 306.84c0.38672-2.1211 0.023437-4.0742-0.8125-5.3711l-90.344 141.95c0.37891 1.293 1.0312 2.9023 1.8438 4.6406l1.7383-2.7266 1.2031-1.8945 86.141-135.35c0.070313-0.39063 0.14062-0.78906 0.23047-1.25z"></path>
  <path d="m391.33 275.51c-3.0469 0.75-4.75 2.5859-4.75 3.2539 0 0.65625-4.293 4.4922-1.7852 7.0039z"></path>
  <path d="m397.64 265.58 16.586-26.051c-2.3008 0.41797-4.3008 0.94531-5.8125 1.5938l-13.512 21.234c0.21484 1.1914 0.86719 2.4844 2.7383 3.2227z"></path>
  <path d="m349.17 317.31-73.883 116.1c0.89062 1.2461 1.7344 2.4688 2.4219 3.7266l76.43-120.1c-1.7383 0.41797-3.7773 0.36719-4.9688 0.27344z"></path>
  <path d="m346.98 311.4 5.8555-9.2109c-0.55078-0.5-1.082-0.97656-1.3945-1.4219-1.2695-1.7734 0.089844-2.1172 0.51562-4.7266l-81.699 128.38c0.58984 1.8203 1.2891 3.2852 1.9688 4.4492l72.785-114.37z"></path>
  <path d="m333.56 313.58s-1.5117-0.41406-2.9727-0.89062l-61.137 96.082c-0.50781 3.125-0.625 5.8789-0.5 8.3164l65.121-102.34c-0.3125-0.63281-0.51172-1.168-0.51172-1.168z"></path>
  <path d="m336.54 310.87 11.582-18.184c-0.73438 0.86328-1.25-4.3086-2.6836-3.3242l-13.121 20.625c1.1445 0.41406 2.8086 0.69922 4.2227 0.88281z"></path>
  <path d="m326.86 301.64c-0.03125 0.054688-0.082031 0.10156-0.097656 0.14453l-2.4102 3.7734-50.133 78.797c0.55859 1.75 0.66406 4.2188-0.10156 7.6914l53.965-84.812 0.82812-1.2852 12.848-20.188c-0.91016-1.1758-0.86328-2.707-1.1953-5.6719l-9.5508 15.023z"></path>
  <path d="m270.82 380.34 49.664-78.047c-0.96094-0.84766-1.9961-1.7578-3.0586-2.7188l-45.473 71.457c0.019531 3.5625-2.7461 7.0273-3.0625 8.1367-0.10547 0.375 0.80469 0.57812 1.9297 1.1719z"></path>
  <path d="m328.58 289.57 9.1914-14.449c-1.2578-0.45703-2.8516-0.52734-4.5938-0.30859l-9.4375 14.82c0.52344-0.054687 0.95703-0.21484 1.1328-0.51562 0.56641-0.92969 2.9414-0.60547 3.707 0.45312z"></path>
  <path d="m311.35 293.81c-0.19531-0.22266-0.46875-0.33594-0.71094-0.48828l-45.105 70.879c0.27734 3.0078 0.57422 5.4609 0.93359 5.3516 0.16016-0.054688 0.45312-0.27344 0.80078-0.52344l46.402-72.918c-0.94531-0.89062-1.7773-1.7148-2.3203-2.3008z"></path>
  <path d="m299.01 294.69-35.438 55.695c0.50391 1.5859 0.9375 3.1641 1.125 4.5039 0.039062 0.30859 0.085937 0.67578 0.12109 1.0664l39.871-62.645c-1.9492 0.49219-3.9453 1.1016-5.6797 1.3789z"></path>
 </g>

      </g>
      </svg>